<?xml version="1.0" encoding="utf-8"?>
<!-- Generator: Adobe Illustrator 25.2.1, SVG Export Plug-In . SVG Version: 6.00 Build 0)  -->
<svg version="1.1" id="Layer_1" xmlns="http://www.w3.org/2000/svg" xmlns:xlink="http://www.w3.org/1999/xlink" x="0px" y="0px"
	 viewBox="0 0 238 195" style="enable-background:new 0 0 238 195;" xml:space="preserve">
<style type="text/css">
	.st0{fill:#1EA56E;}
	.st1{fill:#0D688C;}
	.st2{fill:#1CC4A4;}
	.st3{fill:#52C0F7;}
	.st4{fill:#0A9184;}
	.st5{fill:#4693B2;}
	.st6{fill:#44B7A6;}
	.st7{fill:#2BA394;}
	.st8{fill:#D66565;}
	.st9{fill:#2D7E9E;}
	.st10{fill:#44AAD3;}
	.st11{fill:#44D8BB;}
	.st12{fill:#FFFFFF;}
</style>
<path class="st0" d="M118.6,138.8C118.7,138.8,118.7,138.8,118.6,138.8L118.6,138.8C118.7,138.8,118.7,138.8,118.6,138.8z"/>
<path class="st0" d="M118.6,138.8C118.7,138.8,118.7,138.8,118.6,138.8C118.7,138.8,118.7,138.8,118.6,138.8L118.6,138.8z"/>
<path class="st1" d="M40.4,45.9l0.1,31.6c0,4.7,1.1,9.3,3.1,13.5l35.6-22.3L40.4,45.9z"/>
<polygon class="st2" points="118.7,43.9 118.5,43.8 118.5,43.9 "/>
<path class="st3" d="M118.5,43.9l0-0.2l-11.7-7.3L49.4,0.7c-2.3-1.4-5.2-1.1-7.2,0.7c-1.4,1.2-2.1,3-2,4.8l0.2,39.7l38.7,22.8
	L118.5,43.9z"/>
<path class="st4" d="M193.8,91c1.9-4.2,3.1-8.7,3.1-13.5l0.1-31.6l-38.7,22.8L193.8,91z"/>
<path class="st5" d="M114.6,136.3c2.7,1,3.7,1,4.2,1l0-45.4l-41.6,24.5L114.6,136.3z"/>
<path class="st6" d="M118.8,92L118.8,92L118.8,92l0,45.3c0,0,0,0,0,0c0,0,0,0,0,0c0.5,0,2.3,0,4-1l37.4-19.9L118.8,92z"/>
<path class="st7" d="M118.8,91.9V92l41.5,24.4l19.3-10.2c0.1,0,0.2-0.1,0.3-0.1c6.3-3.5,11.1-8.8,14-15l-35.6-22.3L118.8,91.9z"/>
<polygon class="st8" points="118.8,92 118.8,91.9 118.7,92 "/>
<path class="st2" d="M195.1,1.4c-2-1.8-4.9-2.1-7.2-0.7l-57.4,35.7l-11.8,7.4l39.6,24.8l38.7-22.8l0.2-39.7
	C197.3,4.4,196.5,2.6,195.1,1.4z"/>
<path class="st9" d="M57.5,106.1c0.1,0,0.2,0.1,0.3,0.1l19.3,10.2L118.6,92v-0.1L79.1,68.7L43.5,91C46.4,97.2,51.2,102.6,57.5,106.1
	z"/>
<polygon class="st7" points="118.6,92 118.7,92 118.6,91.9 "/>
<polygon class="st10" points="79.1,68.7 118.7,92 118.7,43.9 "/>
<polygon class="st11" points="118.7,43.9 118.7,92 118.7,92 158.3,68.7 "/>
<g>
	<path class="st12" d="M24.6,180.8c1.2,1.4,1.8,3.2,1.8,5.4c0,2.8-1,4.9-3,6.4c-2,1.5-5,2.2-9,2.2H-0.1v-32.5h13.6
		c3.5,0,6.3,0.7,8.3,2.2c2,1.4,3,3.5,3,6.2c0,1.9-0.5,3.4-1.5,4.7c-1,1.3-2.3,2.2-4,2.7C21.6,178.5,23.4,179.4,24.6,180.8z
		 M2.3,164.4v13h11.1c2.9,0,5.1-0.5,6.6-1.6c1.5-1.1,2.3-2.7,2.3-4.9c0-2.1-0.8-3.7-2.3-4.8c-1.5-1.1-3.7-1.6-6.6-1.6H2.3z
		 M21.7,191.1c1.6-1.1,2.4-2.8,2.4-5.1c0-2.3-0.8-4-2.4-5.1c-1.6-1.1-4-1.6-7.2-1.6H2.3v13.4h12.2C17.6,192.8,20,192.2,21.7,191.1z"
		/>
	<path class="st12" d="M55.1,185.7H36.2l-4.1,9.1h-2.6l15-32.5h2.4l15,32.5h-2.6L55.1,185.7z M54.3,183.7l-8.6-18.8l-8.5,18.8H54.3z
		"/>
	<path class="st12" d="M94.4,162.3v32.5h-2l-22.2-28.2v28.2h-2.4v-32.5h2L92,190.6v-28.2H94.4z"/>
	<path class="st12" d="M115.4,178.8l-7.3,7.5v8.5h-2.4v-32.5h2.4v20.9l20.4-20.9h2.9L117,177.1l15.3,17.7h-2.9L115.4,178.8z"/>
	<path class="st12" d="M161,192.7v2.1h-22.5v-32.5h21.8v2.1h-19.4v12.8h17.4v2.1h-17.4v13.3H161z"/>
	<path class="st12" d="M200.5,194.8l0-27.8l-13.7,23.5h-1.2L172,167.1v27.7h-2.3v-32.5h2l14.6,25.1l14.6-25.1h2l0,32.5H200.5z"/>
	<path class="st12" d="M224.3,183.6v11.2h-2.4v-11.2l-13.1-21.3h2.6l11.8,19.1l11.8-19.1h2.5L224.3,183.6z"/>
</g>
</svg>
